<svg xmlns="http://www.w3.org/2000/svg" xmlns:xlink="http://www.w3.org/1999/xlink" width="171" zoomAndPan="magnify" viewBox="0 0 128.25 31.5" height="42" preserveAspectRatio="xMidYMid meet" version="1.0"><defs><g/><clipPath id="5afbac31d2"><path d="M 0.632812 1 L 5 1 L 5 6 L 0.632812 6 Z M 0.632812 1 " clip-rule="nonzero"/></clipPath><clipPath id="59c194aadd"><path d="M 14 27 L 16 27 L 16 30.902344 L 14 30.902344 Z M 14 27 " clip-rule="nonzero"/></clipPath><clipPath id="bf62679b55"><path d="M 2 27 L 5 27 L 5 30.902344 L 2 30.902344 Z M 2 27 " clip-rule="nonzero"/></clipPath><clipPath id="85093f94e1"><path d="M 6 27 L 8 27 L 8 30.902344 L 6 30.902344 Z M 6 27 " clip-rule="nonzero"/></clipPath><clipPath id="2ebf35a859"><path d="M 15 27 L 16 27 L 16 30.902344 L 15 30.902344 Z M 15 27 " clip-rule="nonzero"/></clipPath><clipPath id="175926c6e9"><path d="M 18 28 L 20 28 L 20 30.902344 L 18 30.902344 Z M 18 28 " clip-rule="nonzero"/></clipPath><clipPath id="58ce99f9ed"><path d="M 4 28 L 7 28 L 7 30.902344 L 4 30.902344 Z M 4 28 " clip-rule="nonzero"/></clipPath><clipPath id="773f46ec8b"><path d="M 7 28 L 10 28 L 10 30.902344 L 7 30.902344 Z M 7 28 " clip-rule="nonzero"/></clipPath><clipPath id="d9155fa4c5"><path d="M 9 28 L 13 28 L 13 30.902344 L 9 30.902344 Z M 9 28 " clip-rule="nonzero"/></clipPath><clipPath id="cc899436eb"><path d="M 12 28 L 15 28 L 15 30.902344 L 12 30.902344 Z M 12 28 " clip-rule="nonzero"/></clipPath><clipPath id="b09095c4fd"><path d="M 16 28 L 18 28 L 18 30.902344 L 16 30.902344 Z M 16 28 " clip-rule="nonzero"/></clipPath><clipPath id="51c9b91b9d"><path d="M 20 28 L 22 28 L 22 30.902344 L 20 30.902344 Z M 20 28 " clip-rule="nonzero"/></clipPath></defs><g fill="#ffffff" fill-opacity="1"><g transform="translate(26.885905, 18.71749)"><g><path d="M 5.71875 0 L 1.03125 0 L 1.03125 -8.15625 L 5.71875 -8.15625 L 5.71875 -6.734375 L 2.75 -6.734375 L 2.75 -4.953125 L 5.515625 -4.953125 L 5.515625 -3.53125 L 2.75 -3.53125 L 2.75 -1.421875 L 5.71875 -1.421875 Z M 5.71875 0 "/></g></g></g><g fill="#ffffff" fill-opacity="1"><g transform="translate(33.278944, 18.71749)"><g><path d="M 2.75 -4.3125 L 3.328125 -4.3125 C 3.859375 -4.3125 4.253906 -4.414062 4.515625 -4.625 C 4.773438 -4.84375 4.90625 -5.148438 4.90625 -5.546875 C 4.90625 -5.953125 4.796875 -6.25 4.578125 -6.4375 C 4.359375 -6.632812 4.015625 -6.734375 3.546875 -6.734375 L 2.75 -6.734375 Z M 6.65625 -5.609375 C 6.65625 -4.734375 6.378906 -4.0625 5.828125 -3.59375 C 5.285156 -3.132812 4.507812 -2.90625 3.5 -2.90625 L 2.75 -2.90625 L 2.75 0 L 1.03125 0 L 1.03125 -8.15625 L 3.625 -8.15625 C 4.613281 -8.15625 5.363281 -7.941406 5.875 -7.515625 C 6.394531 -7.085938 6.65625 -6.453125 6.65625 -5.609375 Z M 6.65625 -5.609375 "/></g></g></g><g fill="#ffffff" fill-opacity="1"><g transform="translate(40.44671, 18.71749)"><g><path d="M 5.71875 0 L 1.03125 0 L 1.03125 -8.15625 L 5.71875 -8.15625 L 5.71875 -6.734375 L 2.75 -6.734375 L 2.75 -4.953125 L 5.515625 -4.953125 L 5.515625 -3.53125 L 2.75 -3.53125 L 2.75 -1.421875 L 5.71875 -1.421875 Z M 5.71875 0 "/></g></g></g><g fill="#ffffff" fill-opacity="1"><g transform="translate(46.839749, 18.71749)"><g/></g></g><g fill="#ffffff" fill-opacity="1"><g transform="translate(49.804952, 18.71749)"><g><path d="M 2.75 -4.53125 L 3.3125 -4.53125 C 3.851562 -4.53125 4.253906 -4.617188 4.515625 -4.796875 C 4.773438 -4.984375 4.90625 -5.273438 4.90625 -5.671875 C 4.90625 -6.054688 4.769531 -6.328125 4.5 -6.484375 C 4.238281 -6.648438 3.832031 -6.734375 3.28125 -6.734375 L 2.75 -6.734375 Z M 2.75 -3.125 L 2.75 0 L 1.03125 0 L 1.03125 -8.15625 L 3.40625 -8.15625 C 4.507812 -8.15625 5.328125 -7.953125 5.859375 -7.546875 C 6.390625 -7.140625 6.65625 -6.53125 6.65625 -5.71875 C 6.65625 -5.226562 6.519531 -4.796875 6.25 -4.421875 C 5.988281 -4.054688 5.617188 -3.765625 5.140625 -3.546875 C 6.367188 -1.710938 7.171875 -0.53125 7.546875 0 L 5.625 0 L 3.671875 -3.125 Z M 2.75 -3.125 "/></g></g></g><g fill="#ffffff" fill-opacity="1"><g transform="translate(57.340581, 18.71749)"><g><path d="M 5.71875 0 L 1.03125 0 L 1.03125 -8.15625 L 5.71875 -8.15625 L 5.71875 -6.734375 L 2.75 -6.734375 L 2.75 -4.953125 L 5.515625 -4.953125 L 5.515625 -3.53125 L 2.75 -3.53125 L 2.75 -1.421875 L 5.71875 -1.421875 Z M 5.71875 0 "/></g></g></g><g fill="#ffffff" fill-opacity="1"><g transform="translate(63.73362, 18.71749)"><g><path d="M 4.171875 0 L 2.4375 0 L 2.4375 -6.71875 L 0.234375 -6.71875 L 0.234375 -8.15625 L 6.390625 -8.15625 L 6.390625 -6.71875 L 4.171875 -6.71875 Z M 4.171875 0 "/></g></g></g><g fill="#ffffff" fill-opacity="1"><g transform="translate(70.344017, 18.71749)"><g><path d="M 5.71875 0 L 1.03125 0 L 1.03125 -8.15625 L 5.71875 -8.15625 L 5.71875 -6.734375 L 2.75 -6.734375 L 2.75 -4.953125 L 5.515625 -4.953125 L 5.515625 -3.53125 L 2.75 -3.53125 L 2.75 -1.421875 L 5.71875 -1.421875 Z M 5.71875 0 "/></g></g></g><g fill="#ffffff" fill-opacity="1"><g transform="translate(76.737056, 18.71749)"><g><path d="M 1.03125 0 L 1.03125 -8.15625 L 2.75 -8.15625 L 2.75 -1.421875 L 6.0625 -1.421875 L 6.0625 0 Z M 1.03125 0 "/></g></g></g><g fill="#ffffff" fill-opacity="1"><g transform="translate(83.185832, 18.71749)"><g><path d="M 5.71875 0 L 1.03125 0 L 1.03125 -8.15625 L 5.71875 -8.15625 L 5.71875 -6.734375 L 2.75 -6.734375 L 2.75 -4.953125 L 5.515625 -4.953125 L 5.515625 -3.53125 L 2.75 -3.53125 L 2.75 -1.421875 L 5.71875 -1.421875 Z M 5.71875 0 "/></g></g></g><g fill="#ffffff" fill-opacity="1"><g transform="translate(89.578871, 18.71749)"><g><path d="M 4.484375 0 L 2.515625 -6.390625 L 2.46875 -6.390625 C 2.539062 -5.085938 2.578125 -4.222656 2.578125 -3.796875 L 2.578125 0 L 1.03125 0 L 1.03125 -8.15625 L 3.375 -8.15625 L 5.3125 -1.921875 L 5.34375 -1.921875 L 7.390625 -8.15625 L 9.75 -8.15625 L 9.75 0 L 8.125 0 L 8.125 -3.859375 C 8.125 -4.035156 8.125 -4.242188 8.125 -4.484375 C 8.132812 -4.722656 8.164062 -5.359375 8.21875 -6.390625 L 8.171875 -6.390625 L 6.0625 0 Z M 4.484375 0 "/></g></g></g><g fill="#ffffff" fill-opacity="1"><g transform="translate(100.341683, 18.71749)"><g/></g></g><g fill="#ffffff" fill-opacity="1"><g transform="translate(103.306887, 18.71749)"><g><path d="M 5.84375 -2.265625 C 5.84375 -1.523438 5.578125 -0.941406 5.046875 -0.515625 C 4.515625 -0.0976562 3.773438 0.109375 2.828125 0.109375 C 1.960938 0.109375 1.195312 -0.0507812 0.53125 -0.375 L 0.53125 -1.984375 C 1.070312 -1.742188 1.535156 -1.570312 1.921875 -1.46875 C 2.304688 -1.363281 2.65625 -1.3125 2.96875 -1.3125 C 3.34375 -1.3125 3.628906 -1.382812 3.828125 -1.53125 C 4.035156 -1.675781 4.140625 -1.894531 4.140625 -2.1875 C 4.140625 -2.34375 4.09375 -2.484375 4 -2.609375 C 3.914062 -2.734375 3.785156 -2.851562 3.609375 -2.96875 C 3.441406 -3.082031 3.09375 -3.265625 2.5625 -3.515625 C 2.0625 -3.753906 1.6875 -3.976562 1.4375 -4.1875 C 1.1875 -4.40625 0.988281 -4.65625 0.84375 -4.9375 C 0.695312 -5.226562 0.625 -5.566406 0.625 -5.953125 C 0.625 -6.671875 0.863281 -7.234375 1.34375 -7.640625 C 1.832031 -8.054688 2.507812 -8.265625 3.375 -8.265625 C 3.800781 -8.265625 4.207031 -8.210938 4.59375 -8.109375 C 4.976562 -8.015625 5.378906 -7.878906 5.796875 -7.703125 L 5.25 -6.359375 C 4.8125 -6.535156 4.445312 -6.65625 4.15625 -6.71875 C 3.875 -6.789062 3.597656 -6.828125 3.328125 -6.828125 C 2.992188 -6.828125 2.738281 -6.75 2.5625 -6.59375 C 2.394531 -6.445312 2.3125 -6.25 2.3125 -6 C 2.3125 -5.851562 2.34375 -5.722656 2.40625 -5.609375 C 2.476562 -5.492188 2.59375 -5.382812 2.75 -5.28125 C 2.90625 -5.175781 3.269531 -4.984375 3.84375 -4.703125 C 4.601562 -4.335938 5.125 -3.972656 5.40625 -3.609375 C 5.695312 -3.242188 5.84375 -2.796875 5.84375 -2.265625 Z M 5.84375 -2.265625 "/></g></g></g><g fill="#ffffff" fill-opacity="1"><g transform="translate(109.594009, 18.71749)"><g><path d="M 2.75 -4.3125 L 3.328125 -4.3125 C 3.859375 -4.3125 4.253906 -4.414062 4.515625 -4.625 C 4.773438 -4.84375 4.90625 -5.148438 4.90625 -5.546875 C 4.90625 -5.953125 4.796875 -6.25 4.578125 -6.4375 C 4.359375 -6.632812 4.015625 -6.734375 3.546875 -6.734375 L 2.75 -6.734375 Z M 6.65625 -5.609375 C 6.65625 -4.734375 6.378906 -4.0625 5.828125 -3.59375 C 5.285156 -3.132812 4.507812 -2.90625 3.5 -2.90625 L 2.75 -2.90625 L 2.75 0 L 1.03125 0 L 1.03125 -8.15625 L 3.625 -8.15625 C 4.613281 -8.15625 5.363281 -7.941406 5.875 -7.515625 C 6.394531 -7.085938 6.65625 -6.453125 6.65625 -5.609375 Z M 6.65625 -5.609375 "/></g></g></g><g fill="#ffffff" fill-opacity="1"><g transform="translate(116.761775, 18.71749)"><g><path d="M 6.015625 0 L 5.421875 -1.9375 L 2.453125 -1.9375 L 1.859375 0 L 0 0 L 2.875 -8.1875 L 4.984375 -8.1875 L 7.875 0 Z M 5.015625 -3.390625 C 4.460938 -5.148438 4.148438 -6.144531 4.078125 -6.375 C 4.015625 -6.601562 3.96875 -6.785156 3.9375 -6.921875 C 3.820312 -6.441406 3.472656 -5.265625 2.890625 -3.390625 Z M 5.015625 -3.390625 "/></g></g></g><path stroke-linecap="butt" transform="matrix(0.741176, 0, 0, 0.741176, -3.848868, -1.580546)" fill="none" stroke-linejoin="miter" d="M 23.61275 21.226918 C 23.517884 21.448272 23.517884 21.674897 23.61275 21.922602 " stroke="#2466b7" stroke-width="2" stroke-opacity="1" stroke-miterlimit="4"/><path stroke-linecap="butt" transform="matrix(0.741176, 0, 0, 0.741176, -3.848868, -1.580546)" fill="none" stroke-linejoin="miter" d="M 20.729875 24.099252 L 20.714064 24.947777 " stroke="#2466b7" stroke-width="2" stroke-opacity="1" stroke-miterlimit="4"/><path fill="#33579e" d="M 8.792969 1.082031 L 9.09375 4.121094 C 9.101562 4.195312 9.070312 4.226562 8.996094 4.222656 L 8.707031 4.207031 C 8.652344 4.203125 8.625 4.175781 8.621094 4.125 L 8.34375 1.128906 C 8.335938 1.070312 8.304688 1.046875 8.246094 1.050781 L 6.941406 1.148438 C 6.871094 1.15625 6.839844 1.125 6.84375 1.054688 L 6.855469 0.777344 C 6.859375 0.726562 6.886719 0.699219 6.9375 0.695312 L 10.101562 0.414062 C 10.164062 0.410156 10.199219 0.4375 10.199219 0.503906 L 10.210938 0.792969 C 10.210938 0.851562 10.183594 0.882812 10.128906 0.886719 L 8.878906 0.984375 C 8.816406 0.988281 8.789062 1.019531 8.792969 1.082031 Z M 8.792969 1.082031 " fill-opacity="1" fill-rule="nonzero"/><path fill="#33579e" d="M 11.296875 0.9375 L 11.296875 1.757812 C 11.296875 1.8125 11.324219 1.839844 11.378906 1.839844 L 12.964844 1.835938 C 13.019531 1.835938 13.046875 1.863281 13.046875 1.917969 L 13.03125 2.246094 C 13.027344 2.300781 13 2.328125 12.949219 2.324219 L 11.398438 2.273438 C 11.347656 2.273438 11.320312 2.296875 11.316406 2.347656 L 11.242188 3.550781 C 11.238281 3.609375 11.265625 3.636719 11.324219 3.636719 L 13.144531 3.644531 C 13.195312 3.644531 13.222656 3.671875 13.222656 3.722656 L 13.230469 4.042969 C 13.234375 4.097656 13.207031 4.125 13.148438 4.125 L 10.859375 4.074219 C 10.804688 4.074219 10.78125 4.046875 10.78125 3.992188 L 10.871094 0.472656 C 10.871094 0.417969 10.898438 0.390625 10.953125 0.394531 L 13.257812 0.476562 C 13.308594 0.476562 13.335938 0.507812 13.335938 0.558594 L 13.328125 0.875 C 13.324219 0.929688 13.296875 0.957031 13.242188 0.953125 L 11.382812 0.855469 C 11.324219 0.851562 11.296875 0.878906 11.296875 0.9375 Z M 11.296875 0.9375 " fill-opacity="1" fill-rule="nonzero"/><path fill="#33579e" d="M 14.210938 3.746094 L 15.988281 3.953125 C 16.039062 3.960938 16.066406 3.992188 16.066406 4.046875 L 16.0625 4.320312 C 16.0625 4.390625 16.027344 4.417969 15.960938 4.410156 L 13.707031 4.152344 C 13.652344 4.144531 13.625 4.113281 13.628906 4.054688 L 13.996094 0.578125 C 14 0.523438 14.027344 0.496094 14.085938 0.496094 L 14.371094 0.496094 C 14.4375 0.496094 14.46875 0.53125 14.460938 0.597656 L 14.132812 3.648438 C 14.128906 3.707031 14.152344 3.738281 14.210938 3.746094 Z M 14.210938 3.746094 " fill-opacity="1" fill-rule="nonzero"/><path fill="#33579e" d="M 4.699219 3.082031 L 4.917969 4.226562 C 4.933594 4.296875 4.972656 4.324219 5.039062 4.308594 L 6.847656 3.980469 C 6.929688 3.964844 6.96875 4 6.96875 4.082031 L 6.964844 4.347656 C 6.964844 4.402344 6.9375 4.4375 6.882812 4.445312 L 4.664062 4.863281 C 4.597656 4.875 4.558594 4.847656 4.546875 4.78125 L 3.878906 1.292969 C 3.863281 1.222656 3.890625 1.183594 3.960938 1.171875 L 6.230469 0.753906 C 6.292969 0.742188 6.332031 0.765625 6.351562 0.824219 L 6.425781 1.074219 C 6.449219 1.148438 6.421875 1.191406 6.347656 1.207031 L 4.511719 1.554688 C 4.441406 1.566406 4.414062 1.609375 4.429688 1.679688 L 4.578125 2.421875 C 4.589844 2.488281 4.628906 2.515625 4.699219 2.503906 L 6.265625 2.207031 C 6.339844 2.191406 6.382812 2.222656 6.390625 2.296875 L 6.417969 2.574219 C 6.425781 2.636719 6.394531 2.675781 6.332031 2.6875 L 4.78125 2.960938 C 4.710938 2.972656 4.683594 3.011719 4.699219 3.082031 Z M 4.699219 3.082031 " fill-opacity="1" fill-rule="nonzero"/><path fill="#33579e" d="M 17.085938 4.148438 L 18.847656 4.542969 C 18.898438 4.554688 18.921875 4.585938 18.917969 4.636719 L 18.898438 4.933594 C 18.890625 5 18.855469 5.027344 18.785156 5.011719 L 16.519531 4.511719 C 16.460938 4.5 16.4375 4.464844 16.449219 4.40625 L 17.1875 0.921875 C 17.203125 0.867188 17.238281 0.84375 17.292969 0.855469 L 19.5 1.339844 C 19.554688 1.347656 19.578125 1.378906 19.574219 1.433594 L 19.550781 1.734375 C 19.546875 1.804688 19.507812 1.832031 19.4375 1.816406 L 17.652344 1.410156 C 17.589844 1.398438 17.554688 1.421875 17.542969 1.480469 L 17.398438 2.253906 C 17.386719 2.3125 17.410156 2.347656 17.46875 2.359375 L 19.03125 2.691406 C 19.085938 2.703125 19.113281 2.734375 19.105469 2.792969 L 19.058594 3.09375 C 19.050781 3.160156 19.015625 3.183594 18.953125 3.171875 L 17.363281 2.8125 C 17.300781 2.800781 17.265625 2.820312 17.253906 2.882812 L 17.015625 4.042969 C 17.003906 4.101562 17.027344 4.136719 17.085938 4.148438 Z M 17.085938 4.148438 " fill-opacity="1" fill-rule="nonzero"/><path fill="#33579e" d="M 23.152344 3.882812 L 21.644531 5.226562 C 21.519531 5.335938 21.382812 5.363281 21.226562 5.3125 C 21.070312 5.257812 20.976562 5.148438 20.949219 4.988281 L 20.570312 2.953125 C 20.5625 2.910156 20.539062 2.890625 20.496094 2.886719 C 20.453125 2.882812 20.425781 2.902344 20.410156 2.945312 L 19.675781 5.132812 C 19.652344 5.207031 19.605469 5.226562 19.535156 5.195312 L 19.289062 5.078125 C 19.230469 5.050781 19.214844 5.007812 19.234375 4.945312 L 20.339844 1.726562 C 20.367188 1.648438 20.421875 1.605469 20.5 1.597656 C 20.65625 1.582031 20.757812 1.664062 20.796875 1.84375 C 21.003906 2.804688 21.195312 3.742188 21.363281 4.660156 C 21.382812 4.753906 21.429688 4.769531 21.5 4.703125 C 22.21875 4.074219 22.914062 3.457031 23.59375 2.851562 C 23.714844 2.742188 23.863281 2.757812 24.035156 2.898438 C 24.09375 2.945312 24.113281 3.007812 24.085938 3.078125 L 22.996094 6.265625 C 22.957031 6.378906 22.878906 6.421875 22.761719 6.394531 L 22.660156 6.367188 C 22.546875 6.339844 22.507812 6.273438 22.546875 6.167969 L 23.277344 3.96875 C 23.339844 3.78125 23.296875 3.75 23.152344 3.882812 Z M 23.152344 3.882812 " fill-opacity="1" fill-rule="nonzero"/><g clip-path="url(#5afbac31d2)"><path fill="#33579e" d="M 1.738281 4.433594 L 2.007812 5.441406 C 2.035156 5.546875 1.996094 5.605469 1.886719 5.621094 L 1.78125 5.636719 C 1.65625 5.65625 1.578125 5.601562 1.542969 5.480469 L 0.660156 2.28125 C 0.632812 2.183594 0.667969 2.121094 0.765625 2.089844 C 1.09375 1.992188 1.519531 1.875 2.046875 1.746094 C 3.371094 1.421875 4.125 2.90625 3.085938 3.734375 C 2.925781 3.863281 2.703125 3.902344 2.503906 3.984375 C 2.402344 4.027344 2.402344 4.070312 2.503906 4.113281 L 4.15625 4.832031 C 4.191406 4.84375 4.207031 4.867188 4.203125 4.90625 C 4.203125 4.941406 4.183594 4.964844 4.148438 4.972656 L 3.835938 5.066406 C 3.703125 5.105469 3.574219 5.097656 3.449219 5.042969 L 1.847656 4.335938 C 1.746094 4.292969 1.707031 4.324219 1.738281 4.433594 Z M 1.207031 2.542969 L 1.503906 3.65625 C 1.519531 3.71875 1.5625 3.742188 1.625 3.722656 L 2.375 3.523438 C 2.605469 3.460938 2.785156 3.347656 2.914062 3.1875 C 3.046875 3.027344 3.089844 2.863281 3.046875 2.695312 L 3.023438 2.601562 C 2.976562 2.433594 2.859375 2.3125 2.664062 2.238281 C 2.46875 2.167969 2.257812 2.160156 2.027344 2.222656 L 1.277344 2.421875 C 1.210938 2.441406 1.1875 2.480469 1.207031 2.542969 Z M 1.207031 2.542969 " fill-opacity="1" fill-rule="nonzero"/></g><path fill="#33579e" d="M 13.652344 14.152344 C 13.582031 14.316406 13.582031 14.484375 13.652344 14.667969 L 11.652344 14.667969 C 11.558594 14.667969 11.511719 14.71875 11.511719 14.8125 L 11.515625 16.28125 L 11.503906 16.910156 L 11.476562 18.15625 C 11.476562 18.273438 11.417969 18.332031 11.304688 18.332031 L 11.105469 18.335938 C 10.980469 18.335938 10.914062 18.273438 10.914062 18.144531 L 10.902344 17.042969 C 10.898438 16.960938 10.859375 16.917969 10.777344 16.914062 L 10.109375 16.894531 C 9.960938 16.890625 9.886719 16.8125 9.886719 16.664062 L 9.886719 16.53125 C 9.882812 16.382812 9.957031 16.304688 10.105469 16.296875 L 10.71875 16.273438 C 10.84375 16.269531 10.90625 16.203125 10.90625 16.078125 L 10.902344 14.851562 C 10.902344 14.722656 10.839844 14.65625 10.710938 14.65625 L 2.28125 14.628906 C 2.089844 14.628906 1.921875 14.5625 1.777344 14.429688 C 1.632812 14.300781 1.554688 14.136719 1.535156 13.945312 C 1.394531 12.445312 1.121094 10.78125 1.375 9.285156 C 1.441406 8.894531 1.617188 8.570312 1.898438 8.316406 C 4.039062 6.402344 8.195312 6.074219 10.90625 6.011719 C 14.511719 5.925781 19.644531 6.046875 22.492188 8.496094 C 23.328125 9.214844 23.027344 11.105469 22.917969 12.332031 C 22.800781 13.652344 22.125 13.902344 20.902344 13.632812 C 19.675781 13.363281 18.449219 13.109375 17.226562 12.871094 C 16.433594 12.71875 16.046875 10.691406 15.882812 10.03125 C 15.863281 9.960938 15.820312 9.917969 15.746094 9.910156 C 13.363281 9.605469 10.980469 9.59375 8.597656 9.867188 C 8.535156 9.875 8.496094 9.910156 8.480469 9.96875 C 8.339844 10.578125 8.175781 11.191406 7.996094 11.800781 C 7.773438 12.550781 7.316406 12.765625 6.546875 12.917969 C 5.273438 13.175781 4 13.421875 2.726562 13.652344 C 2.632812 13.667969 2.542969 13.664062 2.453125 13.632812 L 2.160156 13.53125 C 2.121094 13.519531 2.089844 13.527344 2.058594 13.554688 C 2.03125 13.582031 2.023438 13.613281 2.03125 13.652344 C 2.101562 13.917969 2.246094 14.050781 2.46875 14.050781 C 5.226562 14.070312 7.988281 14.089844 10.746094 14.109375 C 10.847656 14.109375 10.902344 14.058594 10.902344 13.957031 L 10.90625 13.175781 C 10.90625 13.003906 10.992188 12.921875 11.160156 12.917969 L 11.230469 12.917969 C 11.402344 12.914062 11.492188 13 11.492188 13.175781 L 11.5 14.003906 C 11.503906 14.082031 11.542969 14.121094 11.621094 14.121094 Z M 13.652344 14.152344 " fill-opacity="1" fill-rule="nonzero"/><path fill="#1475d0" d="M 11.503906 16.910156 L 11.515625 16.28125 L 13.511719 16.300781 C 13.605469 16.304688 13.652344 16.257812 13.652344 16.160156 L 13.652344 14.667969 C 13.582031 14.484375 13.582031 14.316406 13.652344 14.152344 L 13.667969 13.121094 C 13.671875 12.988281 13.738281 12.921875 13.875 12.921875 L 13.996094 12.917969 C 14.125 12.917969 14.1875 12.980469 14.1875 13.105469 L 14.191406 14.007812 C 14.191406 14.09375 14.234375 14.140625 14.320312 14.144531 L 14.730469 14.175781 C 14.855469 14.183594 14.910156 14.25 14.90625 14.371094 C 14.902344 14.414062 14.894531 14.449219 14.882812 14.484375 C 14.84375 14.597656 14.765625 14.652344 14.648438 14.652344 L 14.328125 14.648438 C 14.238281 14.648438 14.191406 14.695312 14.191406 14.789062 L 14.191406 16.160156 C 14.191406 16.257812 14.242188 16.304688 14.339844 16.304688 L 22.003906 16.34375 C 22.671875 16.347656 23.011719 16.683594 23.027344 17.351562 C 23.058594 18.828125 23.054688 20.320312 23.019531 21.820312 C 22.996094 22.613281 22.609375 23.214844 21.859375 23.625 C 17.933594 25.761719 12.53125 25.769531 8.203125 25.292969 C 6.003906 25.050781 3.339844 24.421875 1.613281 22.847656 C 1.550781 22.789062 1.511719 22.71875 1.492188 22.636719 C 1.222656 21.386719 0.792969 17.375 2.9375 17.792969 C 4.359375 18.070312 5.777344 18.367188 7.191406 18.6875 C 7.941406 18.855469 8.285156 20.726562 8.453125 21.414062 C 8.484375 21.550781 8.574219 21.628906 8.714844 21.644531 C 11.023438 21.898438 13.335938 21.902344 15.652344 21.660156 C 15.804688 21.644531 15.898438 21.5625 15.9375 21.410156 C 16.191406 20.371094 16.285156 18.894531 17.605469 18.625 C 18.898438 18.359375 20.191406 18.101562 21.488281 17.855469 C 21.839844 17.792969 22.03125 17.859375 22.3125 18.035156 C 22.417969 18.101562 22.472656 18.074219 22.46875 17.945312 L 22.453125 17.148438 C 22.449219 17.003906 22.375 16.933594 22.230469 16.929688 L 14.328125 16.914062 C 14.242188 16.914062 14.195312 16.957031 14.195312 17.046875 L 14.183594 18.191406 C 14.183594 18.300781 14.128906 18.355469 14.019531 18.347656 L 13.804688 18.339844 C 13.714844 18.335938 13.671875 18.289062 13.671875 18.203125 L 13.667969 17.042969 C 13.667969 16.964844 13.625 16.921875 13.546875 16.921875 Z M 11.503906 16.910156 " fill-opacity="1" fill-rule="nonzero"/><g clip-path="url(#59c194aadd)"><path fill="#33579e" d="M 14.996094 28.160156 L 15.101562 28.261719 C 15.140625 28.292969 15.144531 28.332031 15.117188 28.371094 C 14.875 28.722656 14.816406 29.128906 14.941406 29.582031 C 14.957031 29.648438 14.992188 29.707031 15.042969 29.753906 C 15.085938 29.796875 15.105469 29.847656 15.109375 29.910156 C 15.113281 30.003906 15.070312 30.070312 14.984375 30.105469 C 14.816406 30.171875 14.675781 30.148438 14.570312 30.027344 C 14.503906 29.953125 14.46875 29.84375 14.464844 29.691406 C 14.453125 29.371094 14.449219 29.054688 14.449219 28.738281 C 14.453125 28.644531 14.414062 28.574219 14.332031 28.523438 L 14.253906 28.472656 C 14.171875 28.421875 14.167969 28.367188 14.234375 28.300781 C 14.375 28.164062 14.460938 28 14.484375 27.800781 C 14.496094 27.695312 14.554688 27.617188 14.648438 27.566406 L 14.746094 27.519531 C 14.851562 27.464844 14.90625 27.5 14.90625 27.617188 L 14.90625 27.953125 C 14.90625 28.035156 14.9375 28.105469 14.996094 28.160156 Z M 14.996094 28.160156 " fill-opacity="1" fill-rule="nonzero"/></g><g clip-path="url(#bf62679b55)"><path fill="#33579e" d="M 3.949219 28.09375 L 3.949219 30.042969 C 3.949219 30.101562 3.921875 30.128906 3.863281 30.128906 L 3.585938 30.128906 C 3.527344 30.128906 3.5 30.097656 3.5 30.039062 L 3.5 28.09375 C 3.5 28.035156 3.46875 28.007812 3.410156 28.007812 L 2.789062 28 C 2.726562 28 2.699219 27.96875 2.703125 27.90625 L 2.71875 27.632812 C 2.722656 27.578125 2.75 27.550781 2.804688 27.550781 L 4.730469 27.550781 C 4.785156 27.550781 4.816406 27.582031 4.816406 27.636719 L 4.820312 27.90625 C 4.820312 27.964844 4.792969 27.992188 4.734375 27.996094 L 4.035156 28.007812 C 3.976562 28.007812 3.949219 28.035156 3.949219 28.09375 Z M 3.949219 28.09375 " fill-opacity="1" fill-rule="nonzero"/></g><path fill="#33579e" d="M 5.53125 27.929688 C 5.523438 27.648438 5.667969 27.523438 5.96875 27.554688 C 6.152344 27.578125 6.171875 27.644531 6.019531 27.753906 L 5.683594 28.003906 C 5.589844 28.074219 5.539062 28.050781 5.53125 27.929688 Z M 5.53125 27.929688 " fill-opacity="1" fill-rule="nonzero"/><g clip-path="url(#85093f94e1)"><path fill="#33579e" d="M 6.960938 27.550781 L 7.191406 27.550781 C 7.265625 27.550781 7.304688 27.589844 7.304688 27.664062 L 7.304688 30.015625 C 7.304688 30.089844 7.265625 30.125 7.191406 30.125 L 6.960938 30.125 C 6.886719 30.125 6.851562 30.089844 6.851562 30.015625 L 6.851562 27.664062 C 6.851562 27.589844 6.886719 27.550781 6.960938 27.550781 Z M 6.960938 27.550781 " fill-opacity="1" fill-rule="nonzero"/></g><path fill="#33579e" d="M 8.390625 27.992188 C 8.363281 28.015625 8.332031 28.019531 8.300781 28.003906 C 8.269531 27.992188 8.25 27.96875 8.242188 27.9375 C 8.226562 27.84375 8.269531 27.75 8.375 27.660156 C 8.46875 27.578125 8.566406 27.546875 8.671875 27.566406 C 8.820312 27.589844 8.832031 27.648438 8.71875 27.742188 Z M 8.390625 27.992188 " fill-opacity="1" fill-rule="nonzero"/><g clip-path="url(#2ebf35a859)"><path fill="#33579e" d="M 15.535156 27.554688 L 15.761719 27.554688 C 15.832031 27.554688 15.867188 27.589844 15.867188 27.65625 L 15.867188 30.019531 C 15.867188 30.089844 15.832031 30.121094 15.761719 30.121094 L 15.535156 30.121094 C 15.46875 30.121094 15.433594 30.089844 15.433594 30.019531 L 15.433594 27.65625 C 15.433594 27.589844 15.46875 27.554688 15.535156 27.554688 Z M 15.535156 27.554688 " fill-opacity="1" fill-rule="nonzero"/></g><g clip-path="url(#175926c6e9)"><path fill="#33579e" d="M 19.101562 30.050781 C 17.929688 30.539062 18.097656 28.960938 18.148438 28.21875 C 18.152344 28.128906 18.199219 28.089844 18.289062 28.097656 L 18.378906 28.105469 C 18.507812 28.117188 18.570312 28.1875 18.574219 28.316406 L 18.597656 29.4375 C 18.597656 29.507812 18.621094 29.5625 18.671875 29.609375 C 18.71875 29.65625 18.777344 29.679688 18.84375 29.679688 L 18.972656 29.675781 C 19.0625 29.675781 19.136719 29.640625 19.199219 29.578125 C 19.257812 29.515625 19.289062 29.441406 19.289062 29.351562 L 19.289062 28.265625 C 19.289062 28.179688 19.332031 28.132812 19.417969 28.132812 L 19.609375 28.128906 C 19.695312 28.128906 19.742188 28.171875 19.742188 28.257812 L 19.742188 29.992188 C 19.742188 30.078125 19.695312 30.125 19.609375 30.128906 C 19.496094 30.136719 19.390625 30.113281 19.292969 30.058594 C 19.230469 30.027344 19.167969 30.023438 19.101562 30.050781 Z M 19.101562 30.050781 " fill-opacity="1" fill-rule="nonzero"/></g><g clip-path="url(#58ce99f9ed)"><path fill="#33579e" d="M 5.511719 29.363281 C 5.3125 29.402344 5.296875 29.476562 5.472656 29.585938 C 5.675781 29.714844 5.882812 29.703125 6.089844 29.5625 C 6.191406 29.488281 6.277344 29.503906 6.351562 29.597656 L 6.410156 29.675781 C 6.453125 29.726562 6.445312 29.777344 6.394531 29.820312 C 5.917969 30.226562 5.460938 30.203125 5.023438 29.746094 C 4.953125 29.671875 4.917969 29.582031 4.917969 29.480469 L 4.917969 28.808594 C 4.917969 28.710938 4.9375 28.617188 4.980469 28.527344 C 5.023438 28.441406 5.082031 28.363281 5.15625 28.300781 C 5.230469 28.238281 5.316406 28.191406 5.414062 28.167969 C 5.507812 28.140625 5.601562 28.136719 5.699219 28.152344 C 6.253906 28.246094 6.527344 28.589844 6.53125 29.179688 C 6.53125 29.234375 6.519531 29.28125 6.492188 29.324219 C 6.46875 29.371094 6.433594 29.40625 6.390625 29.429688 C 6.347656 29.457031 6.296875 29.472656 6.246094 29.472656 C 6.195312 29.476562 6.148438 29.464844 6.101562 29.441406 C 5.925781 29.347656 5.726562 29.324219 5.511719 29.363281 Z M 5.402344 28.847656 C 5.386719 28.882812 5.398438 28.902344 5.441406 28.90625 L 5.820312 28.910156 C 5.902344 28.910156 5.949219 28.871094 5.964844 28.792969 C 5.976562 28.714844 5.945312 28.664062 5.871094 28.636719 C 5.644531 28.558594 5.488281 28.628906 5.402344 28.847656 Z M 5.402344 28.847656 " fill-opacity="1" fill-rule="nonzero"/></g><g clip-path="url(#773f46ec8b)"><path fill="#33579e" d="M 8.46875 30.128906 C 8.242188 30.136719 8.042969 30.050781 7.875 29.863281 C 7.707031 29.675781 7.617188 29.445312 7.605469 29.171875 C 7.597656 28.902344 7.667969 28.664062 7.824219 28.464844 C 7.976562 28.269531 8.167969 28.164062 8.398438 28.15625 C 8.625 28.148438 8.824219 28.238281 8.992188 28.421875 C 9.160156 28.609375 9.25 28.839844 9.261719 29.113281 C 9.269531 29.386719 9.199219 29.621094 9.042969 29.820312 C 8.890625 30.019531 8.699219 30.121094 8.46875 30.128906 Z M 8.460938 28.929688 C 8.507812 28.929688 8.554688 28.925781 8.601562 28.917969 C 8.699219 28.902344 8.730469 28.851562 8.695312 28.757812 C 8.667969 28.691406 8.613281 28.648438 8.523438 28.628906 C 8.414062 28.605469 8.324219 28.613281 8.253906 28.652344 C 8.039062 28.773438 8.050781 28.859375 8.289062 28.917969 C 8.300781 28.917969 8.359375 28.921875 8.460938 28.929688 Z M 8.855469 29.378906 L 8.269531 29.347656 C 8.203125 29.339844 8.160156 29.367188 8.140625 29.433594 C 8.125 29.496094 8.144531 29.542969 8.203125 29.570312 C 8.429688 29.695312 8.660156 29.6875 8.894531 29.546875 C 9.066406 29.445312 9.054688 29.390625 8.855469 29.378906 Z M 8.855469 29.378906 " fill-opacity="1" fill-rule="nonzero"/></g><g clip-path="url(#d9155fa4c5)"><path fill="#33579e" d="M 10.214844 28.25 C 10.433594 28.074219 10.632812 28.09375 10.808594 28.308594 C 10.878906 28.390625 10.953125 28.394531 11.03125 28.316406 L 11.113281 28.242188 C 11.175781 28.175781 11.25 28.144531 11.339844 28.136719 C 12.195312 28.085938 12.03125 29.492188 12 30.011719 C 11.996094 30.085938 11.953125 30.125 11.878906 30.125 L 11.660156 30.128906 C 11.601562 30.128906 11.570312 30.097656 11.566406 30.039062 L 11.527344 28.75 C 11.523438 28.664062 11.480469 28.621094 11.398438 28.613281 C 11.199219 28.597656 11.085938 28.679688 11.058594 28.855469 C 11.023438 29.074219 11.019531 29.445312 11.046875 29.96875 C 11.054688 30.074219 11.003906 30.128906 10.894531 30.128906 L 10.792969 30.128906 C 10.671875 30.132812 10.609375 30.070312 10.605469 29.949219 L 10.554688 28.820312 C 10.550781 28.742188 10.515625 28.683594 10.445312 28.648438 C 10.277344 28.558594 10.160156 28.605469 10.09375 28.789062 C 10 29.046875 9.972656 29.441406 10.015625 29.976562 C 10.019531 30.074219 9.972656 30.125 9.875 30.128906 L 9.6875 30.128906 C 9.601562 30.132812 9.558594 30.089844 9.558594 30 L 9.558594 28.332031 C 9.558594 28.207031 9.621094 28.136719 9.75 28.121094 C 9.847656 28.113281 9.933594 28.144531 9.996094 28.226562 C 10.058594 28.304688 10.132812 28.3125 10.214844 28.25 Z M 10.214844 28.25 " fill-opacity="1" fill-rule="nonzero"/></g><g clip-path="url(#cc899436eb)"><path fill="#33579e" d="M 13.472656 28.609375 C 13.273438 28.59375 13.089844 28.628906 12.921875 28.71875 C 12.652344 28.867188 12.542969 28.789062 12.589844 28.488281 C 12.628906 28.230469 12.886719 28.113281 13.363281 28.136719 C 14.425781 28.1875 14.160156 29.296875 14.125 30.027344 C 14.121094 30.117188 14.074219 30.152344 13.988281 30.136719 C 13.703125 30.082031 13.417969 30.078125 13.128906 30.128906 C 12.988281 30.15625 12.859375 30.125 12.742188 30.039062 C 12.625 29.953125 12.558594 29.835938 12.542969 29.691406 L 12.515625 29.480469 C 12.476562 29.132812 12.628906 28.929688 12.976562 28.875 L 13.476562 28.792969 C 13.539062 28.792969 13.566406 28.761719 13.566406 28.699219 C 13.566406 28.636719 13.53125 28.609375 13.472656 28.609375 Z M 13.480469 29.1875 L 13.058594 29.347656 C 13.015625 29.367188 12.988281 29.398438 12.972656 29.441406 C 12.960938 29.488281 12.96875 29.527344 12.992188 29.566406 C 13.078125 29.679688 13.199219 29.710938 13.359375 29.652344 C 13.578125 29.570312 13.667969 29.441406 13.625 29.265625 C 13.605469 29.183594 13.558594 29.15625 13.480469 29.1875 Z M 13.480469 29.1875 " fill-opacity="1" fill-rule="nonzero"/></g><g clip-path="url(#b09095c4fd)"><path fill="#33579e" d="M 17.792969 30.902344 L 17.390625 30.902344 L 17.355469 30.121094 C 17.351562 30.03125 17.308594 30.003906 17.226562 30.039062 C 16.863281 30.191406 16.589844 30.128906 16.402344 29.859375 C 15.988281 29.261719 16.082031 28.703125 16.679688 28.179688 C 16.742188 28.125 16.8125 28.113281 16.890625 28.136719 C 17.140625 28.21875 17.394531 28.21875 17.648438 28.132812 C 17.75 28.097656 17.800781 28.132812 17.800781 28.242188 Z M 17.042969 29.667969 C 17.136719 29.664062 17.210938 29.609375 17.273438 29.503906 C 17.332031 29.398438 17.359375 29.273438 17.351562 29.125 C 17.34375 28.980469 17.304688 28.859375 17.234375 28.761719 C 17.164062 28.660156 17.085938 28.613281 16.992188 28.617188 C 16.902344 28.621094 16.824219 28.675781 16.765625 28.78125 C 16.707031 28.890625 16.679688 29.015625 16.6875 29.160156 C 16.695312 29.304688 16.730469 29.425781 16.800781 29.527344 C 16.871094 29.625 16.953125 29.671875 17.042969 29.667969 Z M 17.042969 29.667969 " fill-opacity="1" fill-rule="nonzero"/></g><g clip-path="url(#51c9b91b9d)"><path fill="#33579e" d="M 21.566406 29.675781 L 21.585938 29.742188 C 21.601562 29.792969 21.585938 29.839844 21.542969 29.875 C 20.449219 30.75 19.546875 29.152344 20.390625 28.359375 C 21.035156 27.757812 22.015625 28.644531 21.59375 29.433594 C 21.550781 29.511719 21.539062 29.59375 21.566406 29.675781 Z M 20.613281 28.84375 C 20.59375 28.882812 20.605469 28.90625 20.652344 28.90625 L 21.089844 28.910156 C 21.136719 28.910156 21.171875 28.886719 21.1875 28.839844 C 21.203125 28.796875 21.191406 28.757812 21.152344 28.726562 C 20.921875 28.539062 20.738281 28.578125 20.613281 28.84375 Z M 21.296875 29.414062 C 21.085938 29.34375 20.867188 29.328125 20.644531 29.367188 C 20.605469 29.375 20.578125 29.394531 20.570312 29.433594 C 20.558594 29.472656 20.570312 29.503906 20.597656 29.53125 C 20.84375 29.726562 21.082031 29.730469 21.320312 29.539062 C 21.34375 29.519531 21.351562 29.496094 21.347656 29.46875 C 21.339844 29.441406 21.324219 29.421875 21.296875 29.414062 Z M 21.296875 29.414062 " fill-opacity="1" fill-rule="nonzero"/></g></svg>