<svg xmlns="http://www.w3.org/2000/svg" xmlns:xlink="http://www.w3.org/1999/xlink" width="40" zoomAndPan="magnify" viewBox="0 0 30 39.749999" height="53" preserveAspectRatio="xMidYMid meet" version="1.0"><defs><clipPath id="9e6d3f3dde"><path d="M 23 3 L 29.90625 3 L 29.90625 10 L 23 10 Z M 23 3 " clip-rule="nonzero"/></clipPath><clipPath id="2f2c52344d"><path d="M 0.09375 3 L 6 3 L 6 9 L 0.09375 9 Z M 0.09375 3 " clip-rule="nonzero"/></clipPath><clipPath id="75603c1d6f"><path d="M 19 36 L 22 36 L 22 39.5 L 19 39.5 Z M 19 36 " clip-rule="nonzero"/></clipPath></defs><path stroke-linecap="butt" transform="matrix(0.745312, 0, 0, 0.745312, -4.750781, 0.000000000000007944)" fill="none" stroke-linejoin="miter" d="M 28.554508 25.670861 C 28.439204 25.932916 28.439204 26.215935 28.554508 26.509436 " stroke="#2466b7" stroke-width="2" stroke-opacity="1" stroke-miterlimit="4"/><path stroke-linecap="butt" transform="matrix(0.745312, 0, 0, 0.745312, -4.750781, 0.000000000000007944)" fill="none" stroke-linejoin="miter" d="M 25.063942 29.140463 L 25.048219 30.167717 " stroke="#2466b7" stroke-width="2" stroke-opacity="1" stroke-miterlimit="4"/><path fill="#33579e" d="M 10.625 3.238281 L 10.988281 6.933594 C 10.996094 7.023438 10.957031 7.0625 10.871094 7.058594 L 10.515625 7.039062 C 10.453125 7.035156 10.417969 7 10.414062 6.9375 L 10.074219 3.296875 C 10.066406 3.226562 10.027344 3.191406 9.957031 3.199219 L 8.371094 3.320312 C 8.285156 3.328125 8.246094 3.289062 8.25 3.203125 L 8.265625 2.867188 C 8.269531 2.804688 8.304688 2.769531 8.367188 2.765625 L 12.214844 2.425781 C 12.289062 2.417969 12.332031 2.457031 12.332031 2.53125 L 12.34375 2.886719 C 12.347656 2.957031 12.3125 2.996094 12.246094 3 L 10.726562 3.121094 C 10.652344 3.125 10.617188 3.164062 10.625 3.238281 Z M 10.625 3.238281 " fill-opacity="1" fill-rule="nonzero"/><path fill="#33579e" d="M 13.667969 3.058594 L 13.667969 4.058594 C 13.667969 4.125 13.699219 4.15625 13.765625 4.15625 L 15.695312 4.152344 C 15.761719 4.152344 15.796875 4.1875 15.792969 4.253906 L 15.773438 4.65625 C 15.773438 4.71875 15.738281 4.75 15.675781 4.75 L 13.789062 4.6875 C 13.726562 4.683594 13.695312 4.714844 13.691406 4.777344 L 13.601562 6.242188 C 13.597656 6.3125 13.628906 6.34375 13.699219 6.34375 L 15.914062 6.355469 C 15.976562 6.355469 16.007812 6.386719 16.007812 6.449219 L 16.019531 6.835938 C 16.019531 6.90625 15.988281 6.941406 15.917969 6.9375 L 13.132812 6.878906 C 13.070312 6.875 13.039062 6.84375 13.039062 6.777344 L 13.148438 2.496094 C 13.148438 2.429688 13.183594 2.398438 13.246094 2.402344 L 16.050781 2.5 C 16.113281 2.503906 16.144531 2.539062 16.144531 2.601562 L 16.136719 2.988281 C 16.132812 3.054688 16.097656 3.085938 16.03125 3.082031 L 13.769531 2.960938 C 13.703125 2.957031 13.667969 2.992188 13.667969 3.058594 Z M 13.667969 3.058594 " fill-opacity="1" fill-rule="nonzero"/><path fill="#33579e" d="M 17.210938 6.476562 L 19.371094 6.730469 C 19.433594 6.738281 19.46875 6.773438 19.46875 6.839844 L 19.460938 7.175781 C 19.460938 7.257812 19.421875 7.296875 19.339844 7.285156 L 16.597656 6.972656 C 16.53125 6.960938 16.5 6.921875 16.503906 6.851562 L 16.945312 2.625 C 16.953125 2.558594 16.988281 2.523438 17.054688 2.523438 L 17.40625 2.527344 C 17.488281 2.527344 17.523438 2.566406 17.515625 2.648438 L 17.117188 6.359375 C 17.109375 6.425781 17.140625 6.46875 17.210938 6.476562 Z M 17.210938 6.476562 " fill-opacity="1" fill-rule="nonzero"/><path fill="#33579e" d="M 5.640625 5.667969 L 5.910156 7.0625 C 5.925781 7.144531 5.976562 7.179688 6.058594 7.164062 L 8.257812 6.761719 C 8.355469 6.746094 8.402344 6.785156 8.402344 6.882812 L 8.402344 7.207031 C 8.402344 7.277344 8.367188 7.316406 8.300781 7.328125 L 5.601562 7.835938 C 5.519531 7.847656 5.472656 7.816406 5.457031 7.734375 L 4.644531 3.492188 C 4.628906 3.410156 4.664062 3.359375 4.746094 3.34375 L 7.507812 2.835938 C 7.582031 2.824219 7.628906 2.851562 7.652344 2.925781 L 7.746094 3.230469 C 7.773438 3.320312 7.742188 3.371094 7.648438 3.390625 L 5.417969 3.8125 C 5.332031 3.828125 5.296875 3.878906 5.316406 3.960938 L 5.496094 4.867188 C 5.511719 4.949219 5.558594 4.980469 5.640625 4.964844 L 7.546875 4.605469 C 7.640625 4.585938 7.6875 4.621094 7.699219 4.714844 L 7.734375 5.050781 C 7.742188 5.128906 7.707031 5.175781 7.628906 5.1875 L 5.742188 5.519531 C 5.660156 5.535156 5.625 5.585938 5.640625 5.667969 Z M 5.640625 5.667969 " fill-opacity="1" fill-rule="nonzero"/><path fill="#33579e" d="M 20.707031 6.964844 L 22.851562 7.445312 C 22.910156 7.460938 22.941406 7.5 22.933594 7.5625 L 22.910156 7.917969 C 22.902344 8.003906 22.855469 8.035156 22.773438 8.015625 L 20.015625 7.40625 C 19.945312 7.394531 19.917969 7.351562 19.929688 7.28125 L 20.832031 3.042969 C 20.847656 2.976562 20.890625 2.949219 20.960938 2.960938 L 23.644531 3.550781 C 23.707031 3.5625 23.734375 3.601562 23.730469 3.664062 L 23.703125 4.03125 C 23.699219 4.117188 23.652344 4.152344 23.566406 4.132812 L 21.394531 3.636719 C 21.320312 3.621094 21.277344 3.648438 21.265625 3.722656 L 21.085938 4.660156 C 21.070312 4.730469 21.097656 4.773438 21.167969 4.789062 L 23.074219 5.195312 C 23.140625 5.207031 23.167969 5.25 23.160156 5.316406 L 23.105469 5.683594 C 23.097656 5.761719 23.054688 5.792969 22.976562 5.777344 L 21.042969 5.34375 C 20.96875 5.324219 20.925781 5.355469 20.910156 5.425781 L 20.621094 6.835938 C 20.605469 6.90625 20.636719 6.949219 20.707031 6.964844 Z M 20.707031 6.964844 " fill-opacity="1" fill-rule="nonzero"/><g clip-path="url(#9e6d3f3dde)"><path fill="#33579e" d="M 28.082031 6.644531 L 26.25 8.28125 C 26.097656 8.414062 25.929688 8.445312 25.738281 8.378906 C 25.550781 8.316406 25.4375 8.183594 25.402344 7.988281 L 24.945312 5.515625 C 24.933594 5.464844 24.90625 5.4375 24.851562 5.433594 C 24.800781 5.429688 24.765625 5.453125 24.75 5.503906 L 23.855469 8.164062 C 23.828125 8.253906 23.769531 8.277344 23.683594 8.238281 L 23.386719 8.097656 C 23.316406 8.0625 23.292969 8.011719 23.320312 7.933594 L 24.664062 4.019531 C 24.695312 3.925781 24.761719 3.871094 24.859375 3.863281 C 25.050781 3.84375 25.167969 3.945312 25.21875 4.164062 C 25.472656 5.332031 25.703125 6.472656 25.910156 7.585938 C 25.929688 7.703125 25.984375 7.722656 26.074219 7.644531 C 26.949219 6.878906 27.796875 6.125 28.617188 5.390625 C 28.765625 5.257812 28.945312 5.277344 29.15625 5.445312 C 29.230469 5.503906 29.25 5.578125 29.21875 5.664062 L 27.894531 9.539062 C 27.847656 9.675781 27.75 9.730469 27.609375 9.695312 L 27.484375 9.664062 C 27.429688 9.652344 27.386719 9.621094 27.359375 9.574219 C 27.332031 9.523438 27.328125 9.472656 27.347656 9.421875 L 28.234375 6.746094 C 28.3125 6.519531 28.261719 6.484375 28.082031 6.644531 Z M 28.082031 6.644531 " fill-opacity="1" fill-rule="nonzero"/></g><g clip-path="url(#2f2c52344d)"><path fill="#33579e" d="M 2.042969 7.3125 L 2.367188 8.535156 C 2.40625 8.667969 2.355469 8.742188 2.226562 8.757812 L 2.097656 8.777344 C 1.945312 8.800781 1.847656 8.734375 1.808594 8.585938 L 0.730469 4.695312 C 0.699219 4.578125 0.742188 4.5 0.859375 4.464844 C 1.261719 4.34375 1.78125 4.203125 2.417969 4.046875 C 4.027344 3.648438 4.945312 5.457031 3.683594 6.464844 C 3.484375 6.621094 3.21875 6.667969 2.972656 6.769531 C 2.851562 6.820312 2.851562 6.875 2.972656 6.925781 L 4.984375 7.796875 C 5.023438 7.8125 5.042969 7.84375 5.042969 7.886719 C 5.039062 7.929688 5.015625 7.957031 4.972656 7.96875 L 4.59375 8.082031 C 4.433594 8.128906 4.277344 8.121094 4.125 8.054688 L 2.175781 7.195312 C 2.050781 7.140625 2.007812 7.179688 2.042969 7.3125 Z M 1.398438 5.015625 L 1.757812 6.367188 C 1.78125 6.445312 1.828125 6.46875 1.90625 6.449219 L 2.816406 6.203125 C 3.097656 6.128906 3.316406 5.992188 3.472656 5.796875 C 3.632812 5.601562 3.6875 5.402344 3.632812 5.199219 L 3.605469 5.085938 C 3.550781 4.882812 3.402344 4.734375 3.167969 4.644531 C 2.929688 4.554688 2.671875 4.546875 2.394531 4.625 L 1.480469 4.867188 C 1.402344 4.890625 1.375 4.9375 1.398438 5.015625 Z M 1.398438 5.015625 " fill-opacity="1" fill-rule="nonzero"/></g><path fill="#33579e" d="M 16.53125 19.132812 C 16.445312 19.328125 16.445312 19.539062 16.53125 19.757812 L 14.101562 19.761719 C 13.984375 19.761719 13.925781 19.820312 13.929688 19.9375 L 13.929688 21.71875 L 13.917969 22.484375 L 13.886719 24 C 13.886719 24.140625 13.8125 24.214844 13.675781 24.214844 L 13.4375 24.21875 C 13.28125 24.21875 13.203125 24.144531 13.199219 23.984375 L 13.183594 22.644531 C 13.183594 22.546875 13.132812 22.496094 13.035156 22.492188 L 12.222656 22.464844 C 12.039062 22.460938 11.949219 22.367188 11.949219 22.183594 L 11.949219 22.023438 C 11.949219 21.949219 11.976562 21.882812 12.027344 21.828125 C 12.078125 21.769531 12.144531 21.742188 12.21875 21.738281 L 12.960938 21.710938 C 13.113281 21.703125 13.191406 21.625 13.191406 21.476562 L 13.1875 19.980469 C 13.1875 19.824219 13.109375 19.746094 12.957031 19.746094 L 2.703125 19.710938 C 2.46875 19.710938 2.265625 19.628906 2.089844 19.46875 C 1.917969 19.3125 1.816406 19.113281 1.796875 18.878906 C 1.625 17.058594 1.292969 15.03125 1.601562 13.210938 C 1.683594 12.738281 1.894531 12.34375 2.242188 12.035156 C 4.839844 9.707031 9.894531 9.308594 13.191406 9.234375 C 17.578125 9.128906 23.816406 9.277344 27.28125 12.25 C 28.300781 13.125 27.929688 15.425781 27.796875 16.917969 C 27.65625 18.523438 26.832031 18.824219 25.347656 18.5 C 23.855469 18.171875 22.367188 17.863281 20.878906 17.574219 C 19.914062 17.386719 19.441406 14.921875 19.242188 14.121094 C 19.21875 14.03125 19.164062 13.984375 19.074219 13.972656 C 16.179688 13.601562 13.28125 13.585938 10.382812 13.921875 C 10.308594 13.929688 10.261719 13.972656 10.242188 14.046875 C 10.070312 14.785156 9.871094 15.53125 9.652344 16.273438 C 9.382812 17.183594 8.828125 17.445312 7.894531 17.632812 C 6.34375 17.945312 4.792969 18.242188 3.242188 18.523438 C 3.128906 18.542969 3.019531 18.535156 2.914062 18.5 L 2.558594 18.378906 C 2.511719 18.363281 2.46875 18.371094 2.433594 18.40625 C 2.398438 18.4375 2.386719 18.476562 2.398438 18.523438 C 2.484375 18.84375 2.660156 19.003906 2.929688 19.007812 C 6.285156 19.03125 9.640625 19.058594 12.996094 19.078125 C 13.121094 19.078125 13.1875 19.015625 13.1875 18.890625 L 13.191406 17.941406 C 13.191406 17.738281 13.296875 17.632812 13.5 17.632812 L 13.585938 17.628906 C 13.796875 17.625 13.902344 17.730469 13.90625 17.941406 L 13.914062 18.953125 C 13.917969 19.046875 13.964844 19.09375 14.058594 19.09375 Z M 16.53125 19.132812 " fill-opacity="1" fill-rule="nonzero"/><path fill="#1475d0" d="M 13.917969 22.484375 L 13.929688 21.71875 L 16.359375 21.746094 C 16.476562 21.746094 16.53125 21.691406 16.53125 21.574219 L 16.53125 19.757812 C 16.445312 19.539062 16.445312 19.328125 16.53125 19.132812 L 16.550781 17.878906 C 16.554688 17.714844 16.636719 17.632812 16.800781 17.632812 L 16.949219 17.632812 C 17.105469 17.628906 17.183594 17.707031 17.183594 17.859375 L 17.1875 18.957031 C 17.1875 19.058594 17.238281 19.117188 17.34375 19.125 L 17.84375 19.160156 C 17.992188 19.167969 18.0625 19.25 18.054688 19.398438 C 18.050781 19.449219 18.039062 19.492188 18.023438 19.535156 C 17.980469 19.671875 17.882812 19.742188 17.738281 19.738281 L 17.355469 19.734375 C 17.242188 19.734375 17.1875 19.792969 17.1875 19.90625 L 17.1875 21.570312 C 17.1875 21.691406 17.246094 21.75 17.367188 21.75 L 26.683594 21.796875 C 27.496094 21.800781 27.914062 22.210938 27.929688 23.023438 C 27.96875 24.820312 27.964844 26.628906 27.917969 28.457031 C 27.894531 29.421875 27.425781 30.152344 26.511719 30.652344 C 21.738281 33.25 15.167969 33.257812 9.90625 32.679688 C 7.226562 32.382812 3.992188 31.621094 1.890625 29.703125 C 1.816406 29.636719 1.769531 29.550781 1.746094 29.449219 C 1.414062 27.929688 0.890625 23.050781 3.503906 23.558594 C 5.230469 23.894531 6.953125 24.257812 8.675781 24.644531 C 9.585938 24.851562 10.003906 27.128906 10.207031 27.960938 C 10.246094 28.128906 10.355469 28.222656 10.527344 28.242188 C 13.335938 28.550781 16.148438 28.554688 18.960938 28.257812 C 19.148438 28.242188 19.261719 28.140625 19.308594 27.957031 C 19.617188 26.691406 19.734375 24.898438 21.335938 24.570312 C 22.910156 24.246094 24.484375 23.9375 26.058594 23.636719 C 26.488281 23.558594 26.71875 23.636719 27.058594 23.855469 C 27.191406 23.9375 27.257812 23.898438 27.25 23.746094 L 27.234375 22.777344 C 27.230469 22.703125 27.203125 22.640625 27.152344 22.589844 C 27.101562 22.535156 27.035156 22.511719 26.964844 22.507812 L 17.351562 22.492188 C 17.246094 22.492188 17.195312 22.542969 17.191406 22.652344 L 17.179688 24.042969 C 17.179688 24.175781 17.113281 24.242188 16.976562 24.234375 L 16.71875 24.222656 C 16.609375 24.21875 16.554688 24.164062 16.554688 24.054688 L 16.546875 22.648438 C 16.546875 22.550781 16.5 22.5 16.402344 22.496094 Z M 13.917969 22.484375 " fill-opacity="1" fill-rule="nonzero"/><path fill="#33579e" d="M 18.167969 36.164062 L 18.296875 36.289062 C 18.339844 36.328125 18.34375 36.371094 18.3125 36.421875 C 18.015625 36.851562 17.945312 37.339844 18.097656 37.894531 C 18.117188 37.976562 18.160156 38.042969 18.21875 38.101562 C 18.273438 38.15625 18.300781 38.21875 18.304688 38.292969 C 18.308594 38.410156 18.257812 38.488281 18.152344 38.53125 C 17.945312 38.613281 17.777344 38.582031 17.644531 38.4375 C 17.566406 38.347656 17.523438 38.210938 17.515625 38.023438 C 17.507812 37.636719 17.5 37.253906 17.5 36.867188 C 17.503906 36.753906 17.457031 36.667969 17.359375 36.609375 L 17.261719 36.546875 C 17.164062 36.484375 17.15625 36.414062 17.238281 36.339844 C 17.410156 36.171875 17.511719 35.96875 17.542969 35.730469 C 17.558594 35.601562 17.625 35.503906 17.742188 35.445312 L 17.863281 35.386719 C 17.988281 35.320312 18.054688 35.359375 18.058594 35.503906 L 18.058594 35.910156 C 18.058594 36.011719 18.09375 36.097656 18.167969 36.164062 Z M 18.167969 36.164062 " fill-opacity="1" fill-rule="nonzero"/><path fill="#33579e" d="M 4.734375 36.085938 L 4.734375 38.453125 C 4.734375 38.527344 4.695312 38.5625 4.625 38.5625 L 4.289062 38.558594 C 4.21875 38.558594 4.183594 38.523438 4.183594 38.453125 L 4.183594 36.085938 C 4.183594 36.011719 4.148438 35.976562 4.078125 35.976562 L 3.320312 35.96875 C 3.246094 35.96875 3.210938 35.929688 3.214844 35.855469 L 3.234375 35.527344 C 3.238281 35.460938 3.273438 35.425781 3.339844 35.425781 L 5.679688 35.425781 C 5.75 35.425781 5.785156 35.460938 5.785156 35.53125 L 5.789062 35.855469 C 5.792969 35.925781 5.757812 35.964844 5.6875 35.964844 L 4.835938 35.976562 C 4.765625 35.980469 4.734375 36.015625 4.734375 36.085938 Z M 4.734375 36.085938 " fill-opacity="1" fill-rule="nonzero"/><path fill="#33579e" d="M 6.65625 35.886719 C 6.644531 35.542969 6.820312 35.390625 7.1875 35.429688 C 7.414062 35.457031 7.433594 35.535156 7.25 35.671875 L 6.839844 35.976562 C 6.722656 36.058594 6.664062 36.03125 6.65625 35.886719 Z M 6.65625 35.886719 " fill-opacity="1" fill-rule="nonzero"/><path fill="#33579e" d="M 8.394531 35.425781 L 8.675781 35.425781 C 8.765625 35.425781 8.8125 35.472656 8.8125 35.5625 L 8.8125 38.421875 C 8.8125 38.511719 8.765625 38.554688 8.675781 38.554688 L 8.394531 38.554688 C 8.304688 38.554688 8.257812 38.511719 8.257812 38.421875 L 8.257812 35.5625 C 8.257812 35.472656 8.304688 35.425781 8.394531 35.425781 Z M 8.394531 35.425781 " fill-opacity="1" fill-rule="nonzero"/><path fill="#33579e" d="M 10.132812 35.960938 C 10.097656 35.988281 10.0625 35.992188 10.023438 35.976562 C 9.984375 35.960938 9.960938 35.933594 9.953125 35.894531 C 9.933594 35.78125 9.984375 35.667969 10.113281 35.558594 C 10.226562 35.460938 10.347656 35.421875 10.476562 35.445312 C 10.652344 35.472656 10.671875 35.542969 10.53125 35.65625 Z M 10.132812 35.960938 " fill-opacity="1" fill-rule="nonzero"/><path fill="#33579e" d="M 18.820312 35.429688 L 19.097656 35.429688 C 19.179688 35.429688 19.222656 35.472656 19.222656 35.554688 L 19.222656 38.425781 C 19.222656 38.511719 19.179688 38.550781 19.097656 38.550781 L 18.820312 38.550781 C 18.738281 38.550781 18.695312 38.511719 18.695312 38.425781 L 18.695312 35.554688 C 18.695312 35.472656 18.738281 35.429688 18.820312 35.429688 Z M 18.820312 35.429688 " fill-opacity="1" fill-rule="nonzero"/><path fill="#33579e" d="M 23.15625 38.464844 C 21.734375 39.054688 21.9375 37.136719 21.996094 36.234375 C 22.003906 36.128906 22.0625 36.078125 22.167969 36.085938 L 22.28125 36.101562 C 22.433594 36.113281 22.511719 36.199219 22.515625 36.355469 L 22.542969 37.722656 C 22.542969 37.804688 22.574219 37.871094 22.632812 37.929688 C 22.691406 37.988281 22.761719 38.015625 22.84375 38.011719 L 23 38.007812 C 23.109375 38.007812 23.199219 37.96875 23.273438 37.890625 C 23.347656 37.8125 23.386719 37.722656 23.386719 37.613281 L 23.386719 36.292969 C 23.386719 36.1875 23.4375 36.132812 23.539062 36.132812 L 23.773438 36.128906 C 23.882812 36.125 23.933594 36.179688 23.933594 36.285156 L 23.933594 38.390625 C 23.933594 38.5 23.882812 38.554688 23.773438 38.5625 C 23.640625 38.570312 23.511719 38.539062 23.390625 38.472656 C 23.3125 38.433594 23.238281 38.429688 23.15625 38.464844 Z M 23.15625 38.464844 " fill-opacity="1" fill-rule="nonzero"/><path fill="#33579e" d="M 6.632812 37.628906 C 6.386719 37.679688 6.371094 37.769531 6.582031 37.898438 C 6.832031 38.054688 7.085938 38.042969 7.335938 37.867188 C 7.457031 37.78125 7.5625 37.796875 7.652344 37.914062 L 7.722656 38.007812 C 7.773438 38.070312 7.769531 38.128906 7.703125 38.183594 C 7.128906 38.679688 6.570312 38.648438 6.035156 38.09375 C 5.953125 38.003906 5.910156 37.894531 5.910156 37.769531 L 5.910156 36.957031 C 5.910156 36.835938 5.933594 36.722656 5.984375 36.613281 C 6.035156 36.503906 6.109375 36.414062 6.199219 36.335938 C 6.292969 36.257812 6.394531 36.203125 6.511719 36.171875 C 6.625 36.140625 6.742188 36.136719 6.863281 36.15625 C 7.53125 36.269531 7.867188 36.6875 7.871094 37.40625 C 7.871094 37.46875 7.855469 37.527344 7.824219 37.582031 C 7.792969 37.636719 7.753906 37.679688 7.699219 37.710938 C 7.644531 37.742188 7.589844 37.761719 7.527344 37.761719 C 7.464844 37.765625 7.40625 37.753906 7.351562 37.722656 C 7.132812 37.609375 6.894531 37.578125 6.632812 37.628906 Z M 6.496094 37 C 6.480469 37.046875 6.496094 37.070312 6.542969 37.070312 L 7.007812 37.078125 C 7.105469 37.078125 7.164062 37.03125 7.179688 36.933594 C 7.199219 36.839844 7.160156 36.777344 7.066406 36.746094 C 6.792969 36.652344 6.605469 36.738281 6.496094 37 Z M 6.496094 37 " fill-opacity="1" fill-rule="nonzero"/><path fill="#33579e" d="M 10.230469 38.558594 C 10.09375 38.566406 9.964844 38.539062 9.839844 38.484375 C 9.714844 38.425781 9.601562 38.34375 9.503906 38.234375 C 9.40625 38.125 9.328125 38 9.273438 37.855469 C 9.214844 37.707031 9.183594 37.554688 9.179688 37.398438 C 9.171875 37.238281 9.191406 37.085938 9.238281 36.933594 C 9.285156 36.785156 9.351562 36.652344 9.441406 36.539062 C 9.53125 36.421875 9.636719 36.332031 9.757812 36.265625 C 9.878906 36.199219 10.007812 36.164062 10.140625 36.160156 C 10.273438 36.15625 10.402344 36.179688 10.527344 36.238281 C 10.652344 36.292969 10.765625 36.375 10.863281 36.484375 C 10.964844 36.59375 11.039062 36.722656 11.097656 36.867188 C 11.152344 37.011719 11.183594 37.164062 11.191406 37.324219 C 11.195312 37.484375 11.175781 37.636719 11.128906 37.785156 C 11.085938 37.933594 11.015625 38.066406 10.925781 38.183594 C 10.835938 38.296875 10.730469 38.390625 10.609375 38.453125 C 10.488281 38.519531 10.363281 38.554688 10.230469 38.558594 Z M 10.21875 37.101562 C 10.277344 37.101562 10.332031 37.097656 10.386719 37.085938 C 10.507812 37.070312 10.546875 37.003906 10.5 36.894531 C 10.472656 36.8125 10.402344 36.757812 10.292969 36.738281 C 10.164062 36.707031 10.054688 36.714844 9.964844 36.765625 C 9.707031 36.910156 9.71875 37.015625 10.007812 37.085938 C 10.027344 37.089844 10.097656 37.09375 10.21875 37.101562 Z M 10.695312 37.648438 L 9.984375 37.609375 C 9.902344 37.601562 9.851562 37.632812 9.832031 37.710938 C 9.808594 37.789062 9.832031 37.84375 9.90625 37.878906 C 10.179688 38.03125 10.460938 38.023438 10.746094 37.851562 C 10.953125 37.730469 10.9375 37.660156 10.695312 37.648438 Z M 10.695312 37.648438 " fill-opacity="1" fill-rule="nonzero"/><path fill="#33579e" d="M 12.351562 36.273438 C 12.617188 36.0625 12.859375 36.085938 13.074219 36.34375 C 13.160156 36.445312 13.25 36.449219 13.34375 36.355469 L 13.441406 36.261719 C 13.515625 36.1875 13.609375 36.144531 13.71875 36.136719 C 14.757812 36.074219 14.5625 37.785156 14.523438 38.417969 C 14.515625 38.507812 14.46875 38.554688 14.371094 38.554688 L 14.105469 38.558594 C 14.035156 38.558594 14 38.523438 13.996094 38.453125 L 13.945312 36.878906 C 13.945312 36.777344 13.890625 36.722656 13.789062 36.71875 C 13.546875 36.699219 13.410156 36.796875 13.375 37.011719 C 13.335938 37.277344 13.328125 37.726562 13.363281 38.363281 C 13.371094 38.492188 13.308594 38.558594 13.179688 38.558594 L 13.054688 38.5625 C 12.90625 38.5625 12.832031 38.488281 12.824219 38.339844 L 12.765625 36.96875 C 12.761719 36.871094 12.714844 36.800781 12.628906 36.757812 C 12.425781 36.652344 12.28125 36.707031 12.203125 36.925781 C 12.089844 37.242188 12.058594 37.722656 12.105469 38.371094 C 12.113281 38.496094 12.058594 38.554688 11.9375 38.558594 L 11.707031 38.5625 C 11.605469 38.5625 11.550781 38.511719 11.550781 38.402344 L 11.554688 36.375 C 11.554688 36.222656 11.632812 36.136719 11.785156 36.117188 C 11.90625 36.105469 12.007812 36.148438 12.085938 36.246094 C 12.164062 36.34375 12.25 36.351562 12.351562 36.273438 Z M 12.351562 36.273438 " fill-opacity="1" fill-rule="nonzero"/><path fill="#33579e" d="M 16.308594 36.710938 C 16.066406 36.691406 15.84375 36.734375 15.644531 36.847656 C 15.316406 37.027344 15.179688 36.933594 15.238281 36.5625 C 15.285156 36.253906 15.601562 36.109375 16.179688 36.136719 C 17.472656 36.195312 17.148438 37.546875 17.105469 38.4375 C 17.101562 38.546875 17.046875 38.589844 16.9375 38.566406 C 16.59375 38.5 16.246094 38.5 15.898438 38.5625 C 15.722656 38.59375 15.566406 38.554688 15.425781 38.449219 C 15.28125 38.34375 15.203125 38.203125 15.183594 38.027344 L 15.152344 37.769531 C 15.101562 37.347656 15.289062 37.101562 15.707031 37.035156 L 16.316406 36.9375 C 16.390625 36.933594 16.429688 36.894531 16.425781 36.820312 C 16.425781 36.746094 16.386719 36.710938 16.308594 36.710938 Z M 16.324219 37.414062 L 15.808594 37.609375 C 15.757812 37.632812 15.722656 37.667969 15.707031 37.722656 C 15.691406 37.777344 15.699219 37.828125 15.730469 37.875 C 15.832031 38.015625 15.976562 38.050781 16.171875 37.976562 C 16.441406 37.882812 16.550781 37.726562 16.5 37.507812 C 16.476562 37.410156 16.417969 37.378906 16.324219 37.414062 Z M 16.324219 37.414062 " fill-opacity="1" fill-rule="nonzero"/><g clip-path="url(#75603c1d6f)"><path fill="#33579e" d="M 21.566406 39.5 L 21.078125 39.5 L 21.035156 38.550781 C 21.03125 38.441406 20.976562 38.40625 20.875 38.453125 C 20.4375 38.632812 20.101562 38.558594 19.875 38.230469 C 19.375 37.503906 19.484375 36.824219 20.214844 36.1875 C 20.289062 36.121094 20.375 36.105469 20.46875 36.136719 C 20.773438 36.238281 21.082031 36.234375 21.390625 36.132812 C 21.511719 36.089844 21.574219 36.132812 21.574219 36.261719 Z M 20.65625 38 C 20.765625 37.992188 20.859375 37.925781 20.933594 37.796875 C 21.003906 37.667969 21.035156 37.515625 21.027344 37.339844 C 21.019531 37.164062 20.972656 37.015625 20.886719 36.894531 C 20.804688 36.773438 20.703125 36.714844 20.59375 36.722656 C 20.480469 36.726562 20.390625 36.792969 20.316406 36.921875 C 20.242188 37.050781 20.210938 37.203125 20.21875 37.378906 C 20.230469 37.554688 20.277344 37.707031 20.359375 37.824219 C 20.445312 37.945312 20.542969 38.003906 20.65625 38 Z M 20.65625 38 " fill-opacity="1" fill-rule="nonzero"/></g><path fill="#33579e" d="M 26.15625 38.007812 L 26.175781 38.085938 C 26.199219 38.152344 26.179688 38.207031 26.125 38.25 C 24.792969 39.3125 23.695312 37.371094 24.726562 36.40625 C 25.507812 35.671875 26.703125 36.753906 26.1875 37.714844 C 26.132812 37.808594 26.125 37.90625 26.15625 38.007812 Z M 24.996094 36.996094 C 24.972656 37.046875 24.988281 37.070312 25.042969 37.070312 L 25.574219 37.074219 C 25.632812 37.078125 25.675781 37.050781 25.695312 36.992188 C 25.714844 36.9375 25.699219 36.890625 25.652344 36.855469 C 25.367188 36.625 25.148438 36.671875 24.996094 36.996094 Z M 25.828125 37.691406 C 25.570312 37.605469 25.304688 37.585938 25.03125 37.632812 C 24.984375 37.640625 24.953125 37.667969 24.941406 37.714844 C 24.929688 37.761719 24.941406 37.800781 24.980469 37.832031 C 25.273438 38.070312 25.566406 38.074219 25.855469 37.839844 C 25.882812 37.816406 25.894531 37.789062 25.886719 37.757812 C 25.878906 37.722656 25.859375 37.699219 25.828125 37.691406 Z M 25.828125 37.691406 " fill-opacity="1" fill-rule="nonzero"/></svg>